<?xml version="1.0" encoding="utf-8"?>
<!-- Generator: Adobe Illustrator 21.1.0, SVG Export Plug-In . SVG Version: 6.00 Build 0)  -->
<svg version="1.1" id="Слой_1" xmlns="http://www.w3.org/2000/svg" xmlns:xlink="http://www.w3.org/1999/xlink" x="0px" y="0px"
	 viewBox="0 0 881 135" style="enable-background:new 0 0 881 135;" xml:space="preserve">
<style type="text/css">
	.st0{fill:#22334C;}
	.st1{fill:#00D699;}
</style>
<rect x="2.2" y="13.3" class="st0" width="32" height="32"/>
<rect x="2.2" y="56" class="st0" width="32" height="32"/>
<rect x="44.8" y="13.3" class="st0" width="32" height="32"/>
<rect x="44.8" y="56" class="st0" width="32" height="32"/>
<rect x="2.2" y="98.6" class="st0" width="32" height="32"/>
<rect x="87.4" y="13.3" class="st1" width="32" height="32"/>
<rect x="87.4" y="56" class="st1" width="32" height="32"/>
<rect x="87.4" y="98.6" class="st1" width="32" height="32"/>
<rect x="130.1" y="98.6" class="st1" width="32" height="32"/>
<polygon class="st1" points="691.2,119.4 622.8,119.4 622.8,24.3 640,24.3 640,102.2 691.2,102.2 "/>
<polygon class="st1" points="722.7,41.6 722.7,63.2 784.6,63.2 784.6,80.5 722.7,80.5 722.7,102.2 784.6,102.2 784.6,119.4 
	705.4,119.4 705.4,24.3 784.6,24.3 784.6,41.6 "/>
<path class="st1" d="M830.5,119.4h-31.7v-17.2h31.7c16.7,0,30.3-13.6,30.3-30.3s-13.6-30.3-30.3-30.3h-31.7V24.3h31.7
	c26.3,0.4,47.3,22,46.9,48.3C877.1,98.3,856.3,119.1,830.5,119.4L830.5,119.4z"/>
<path class="st0" d="M243.3,119.4H226V69.2h48.2c7.6,0,13.8-6.2,13.8-13.8s-6.2-13.8-13.8-13.8c0,0,0,0,0,0H226V24.3h48.2
	c17.2,0.3,30.8,14.5,30.5,31.6c-0.3,16.7-13.8,30.2-30.5,30.5h-30.9V119.4z"/>
<path class="st0" d="M399,119.4h-19.8l-18.6-33h-29v33h-17.3V69.2h48.1c7.6,0.2,14-5.8,14.2-13.4s-5.8-14-13.4-14.2
	c-0.2,0-0.5,0-0.7,0h-48.1V24.3h48.1c17.1-0.2,31.1,13.6,31.3,30.7c0.1,11.3-5.9,21.8-15.8,27.3L399,119.4z"/>
<path class="st0" d="M454.3,122.5c-27.9,0-50.5-22.6-50.5-50.5s22.6-50.5,50.5-50.5c27.9,0,50.5,22.6,50.5,50.5
	C504.8,99.9,482.2,122.4,454.3,122.5z M454.3,40.3c-17.5,0-31.7,14.2-31.7,31.7s14.2,31.7,31.7,31.7c17.5,0,31.7-14.2,31.7-31.7
	c0,0,0,0,0,0C486,54.5,471.8,40.4,454.3,40.3z"/>
<polygon class="st0" points="608.5,24.3 608.5,119.4 591.2,119.4 591.2,69.8 567.1,119.4 556.4,119.4 532.3,70.2 532.3,119.4 
	515,119.4 515,24.3 529,24.3 561.7,91.1 594.1,24.3 "/>
</svg>
